<svg xmlns="http://www.w3.org/2000/svg" viewBox="0 0 640 480" role="img" aria-labelledby="title"><title id="title">問20 外部キーの参照制約の解説図</title><defs><marker id="arr" markerWidth="9" markerHeight="9" refX="8" refY="4" orient="auto"><path d="M0,0 L8,4 L0,8" fill="#3571ae"/></marker></defs><rect width="640" height="480" rx="16" fill="#f1f7fc"/><g font-family="Meiryo,Yu Gothic,sans-serif"><text x="320" y="35" font-size="23" fill="#173d6c" text-anchor="middle">外部キーの参照制約</text><rect x="25" y="70" width="260" height="65" rx="12" fill="#ffffff" stroke="#3571ae" stroke-width="2"/><text x="155.0" y="108.5" font-size="19" fill="#173d6c" text-anchor="middle">A表（親）</text><rect x="355" y="70" width="260" height="65" rx="12" fill="#ffffff" stroke="#3571ae" stroke-width="2"/><text x="485.0" y="108.5" font-size="19" fill="#173d6c" text-anchor="middle">B表（子）</text><rect x="25" y="165" width="260" height="80" rx="12" fill="#ffffff" stroke="#3571ae" stroke-width="2"/><text x="155.0" y="211.0" font-size="19" fill="#173d6c" text-anchor="middle">主キー：部署10</text><rect x="355" y="165" width="260" height="80" rx="12" fill="#ffffff" stroke="#3571ae" stroke-width="2"/><text x="485.0" y="211.0" font-size="19" fill="#173d6c" text-anchor="middle">外部キー：部署10</text><path d="M350,205 L290,205" fill="none" stroke="#3571ae" stroke-width="2.5" marker-end="url(#arr)"/><text x="320" y="285" font-size="21" fill="#173d6c" text-anchor="middle">子は存在する親を参照する</text><rect x="25" y="330" width="260" height="95" rx="12" fill="#fff0de" stroke="#3571ae" stroke-width="2"/><text x="155.0" y="371.0" font-size="19" fill="#173d6c" text-anchor="middle">親の削除：参照する子が残る</text><text x="155.0" y="396.0" font-size="19" fill="#173d6c" text-anchor="middle">なら拒否</text><rect x="355" y="330" width="260" height="95" rx="12" fill="#fff0de" stroke="#3571ae" stroke-width="2"/><text x="485.0" y="371.0" font-size="19" fill="#173d6c" text-anchor="middle">子の追加：参照先の親がなけ</text><text x="485.0" y="396.0" font-size="19" fill="#173d6c" text-anchor="middle">れば拒否</text></g></svg>